<?xml version="1.0" encoding="UTF-8"?>
<!DOCTYPE svg PUBLIC "-//W3C//DTD SVG 1.1//EN" "http://www.w3.org/Graphics/SVG/1.1/DTD/svg11.dtd">
<!-- Creator: CorelDRAW X7 -->
<svg xmlns="http://www.w3.org/2000/svg" xml:space="preserve" width="108mm" height="234mm" version="1.1" style="shape-rendering:geometricPrecision; text-rendering:geometricPrecision; image-rendering:optimizeQuality; fill-rule:evenodd; clip-rule:evenodd"
viewBox="0 0 10800 23400"
 xmlns:xlink="http://www.w3.org/1999/xlink">
 <defs>
  <style type="text/css">
   <![CDATA[
    .fil3 {fill:none}
    .fil1 {fill:#B34914}
    .fil0 {fill:#D45B1E}
    .fil2 {fill:#F78234}
   ]]>
  </style>
 </defs>
 <g id="Layer_x0020_1">
  <metadata id="CorelCorpID_0Corel-Layer"/>
  <rect class="fil0" y="4736" width="10800" height="18664"/>
  <rect class="fil0" y="3248" width="1550" height="1550"/>
  <rect class="fil0" x="3055" y="3248" width="1550" height="1550"/>
  <rect class="fil0" x="6195" y="3248" width="1550" height="1550"/>
  <rect class="fil0" x="9250" y="3248" width="1550" height="1550"/>
  <path class="fil1" d="M3298 3429l327 0c57,0 104,47 104,104l0 93c0,57 -47,104 -104,104l-327 0c-57,0 -104,-47 -104,-104l0 -93c0,-57 47,-104 104,-104z"/>
  <path class="fil2" d="M3298 3405l327 0c57,0 104,47 104,104l0 93c0,57 -47,104 -104,104l-327 0c-57,0 -104,-47 -104,-104l0 -93c0,-57 47,-104 104,-104z"/>
  <path class="fil1" d="M4036 4188l327 0c57,0 104,47 104,104l0 93c0,57 -47,104 -104,104l-327 0c-57,0 -104,-47 -104,-104l0 -93c0,-57 47,-104 104,-104z"/>
  <path class="fil2" d="M4036 4164l327 0c57,0 104,47 104,104l0 93c0,57 -47,104 -104,104l-327 0c-57,0 -104,-47 -104,-104l0 -93c0,-57 47,-104 104,-104z"/>
  <path class="fil1" d="M3811 4530l202 0c35,0 64,29 64,64l0 58c0,35 -29,64 -64,64l-202 0c-35,0 -64,-29 -64,-64l0 -58c0,-35 29,-64 64,-64z"/>
  <path class="fil2" d="M3811 4515l202 0c35,0 64,29 64,64l0 58c0,35 -29,64 -64,64l-202 0c-35,0 -64,-29 -64,-64l0 -58c0,-35 29,-64 64,-64z"/>
  <path class="fil1" d="M6437 3429l327 0c57,0 104,47 104,104l0 93c0,57 -47,104 -104,104l-327 0c-57,0 -104,-47 -104,-104l0 -93c0,-57 47,-104 104,-104z"/>
  <path class="fil2" d="M6437 3405l327 0c57,0 104,47 104,104l0 93c0,57 -47,104 -104,104l-327 0c-57,0 -104,-47 -104,-104l0 -93c0,-57 47,-104 104,-104z"/>
  <path class="fil1" d="M7175 4188l327 0c57,0 104,47 104,104l0 93c0,57 -47,104 -104,104l-327 0c-57,0 -104,-47 -104,-104l0 -93c0,-57 47,-104 104,-104z"/>
  <path class="fil2" d="M7175 4164l327 0c57,0 104,47 104,104l0 93c0,57 -47,104 -104,104l-327 0c-57,0 -104,-47 -104,-104l0 -93c0,-57 47,-104 104,-104z"/>
  <path class="fil1" d="M6951 4530l202 0c35,0 64,29 64,64l0 58c0,35 -29,64 -64,64l-202 0c-35,0 -64,-29 -64,-64l0 -58c0,-35 29,-64 64,-64z"/>
  <path class="fil2" d="M6951 4515l202 0c35,0 64,29 64,64l0 58c0,35 -29,64 -64,64l-202 0c-35,0 -64,-29 -64,-64l0 -58c0,-35 29,-64 64,-64z"/>
  <path class="fil1" d="M9492 3429l327 0c57,0 104,47 104,104l0 93c0,57 -47,104 -104,104l-327 0c-57,0 -104,-47 -104,-104l0 -93c0,-57 47,-104 104,-104z"/>
  <path class="fil2" d="M9492 3405l327 0c57,0 104,47 104,104l0 93c0,57 -47,104 -104,104l-327 0c-57,0 -104,-47 -104,-104l0 -93c0,-57 47,-104 104,-104z"/>
  <path class="fil1" d="M10230 4188l327 0c57,0 104,47 104,104l0 93c0,57 -47,104 -104,104l-327 0c-57,0 -104,-47 -104,-104l0 -93c0,-57 47,-104 104,-104z"/>
  <path class="fil2" d="M10230 4164l327 0c57,0 104,47 104,104l0 93c0,57 -47,104 -104,104l-327 0c-57,0 -104,-47 -104,-104l0 -93c0,-57 47,-104 104,-104z"/>
  <path class="fil1" d="M10006 4530l202 0c35,0 64,29 64,64l0 58c0,35 -29,64 -64,64l-202 0c-35,0 -64,-29 -64,-64l0 -58c0,-35 29,-64 64,-64z"/>
  <path class="fil2" d="M10006 4515l202 0c35,0 64,29 64,64l0 58c0,35 -29,64 -64,64l-202 0c-35,0 -64,-29 -64,-64l0 -58c0,-35 29,-64 64,-64z"/>
  <path class="fil1" d="M1473 21855l327 0c57,0 104,47 104,104l0 93c0,57 -47,104 -104,104l-327 0c-57,0 -104,-47 -104,-104l0 -93c0,-57 47,-104 104,-104z"/>
  <path class="fil2" d="M1473 21831l327 0c57,0 104,47 104,104l0 93c0,57 -47,104 -104,104l-327 0c-57,0 -104,-47 -104,-104l0 -93c0,-57 47,-104 104,-104z"/>
  <path class="fil1" d="M2211 22614l327 0c57,0 104,47 104,104l0 93c0,57 -47,104 -104,104l-327 0c-57,0 -104,-47 -104,-104l0 -93c0,-57 47,-104 104,-104z"/>
  <path class="fil2" d="M2211 22590l327 0c57,0 104,47 104,104l0 93c0,57 -47,104 -104,104l-327 0c-57,0 -104,-47 -104,-104l0 -93c0,-57 47,-104 104,-104z"/>
  <path class="fil1" d="M1986 22956l202 0c35,0 64,29 64,64l0 58c0,35 -29,64 -64,64l-202 0c-35,0 -64,-29 -64,-64l0 -58c0,-35 29,-64 64,-64z"/>
  <path class="fil2" d="M1986 22941l202 0c35,0 64,29 64,64l0 58c0,35 -29,64 -64,64l-202 0c-35,0 -64,-29 -64,-64l0 -58c0,-35 29,-64 64,-64z"/>
  <path class="fil1" d="M5668 21855l327 0c57,0 104,47 104,104l0 93c0,57 -47,104 -104,104l-327 0c-57,0 -104,-47 -104,-104l0 -93c0,-57 47,-104 104,-104z"/>
  <path class="fil2" d="M5668 21831l327 0c57,0 104,47 104,104l0 93c0,57 -47,104 -104,104l-327 0c-57,0 -104,-47 -104,-104l0 -93c0,-57 47,-104 104,-104z"/>
  <path class="fil1" d="M4930 22614l327 0c57,0 104,47 104,104l0 93c0,57 -47,104 -104,104l-327 0c-57,0 -104,-47 -104,-104l0 -93c0,-57 47,-104 104,-104z"/>
  <path class="fil2" d="M4930 22590l327 0c57,0 104,47 104,104l0 93c0,57 -47,104 -104,104l-327 0c-57,0 -104,-47 -104,-104l0 -93c0,-57 47,-104 104,-104z"/>
  <path class="fil1" d="M5279 22956l202 0c35,0 64,29 64,64l0 58c0,35 -29,64 -64,64l-202 0c-35,0 -64,-29 -64,-64l0 -58c0,-35 29,-64 64,-64z"/>
  <path class="fil2" d="M5279 22941l202 0c35,0 64,29 64,64l0 58c0,35 -29,64 -64,64l-202 0c-35,0 -64,-29 -64,-64l0 -58c0,-35 29,-64 64,-64z"/>
  <path class="fil1" d="M8576 21855l327 0c57,0 104,47 104,104l0 93c0,57 -47,104 -104,104l-327 0c-57,0 -104,-47 -104,-104l0 -93c0,-57 47,-104 104,-104z"/>
  <path class="fil2" d="M8576 21831l327 0c57,0 104,47 104,104l0 93c0,57 -47,104 -104,104l-327 0c-57,0 -104,-47 -104,-104l0 -93c0,-57 47,-104 104,-104z"/>
  <path class="fil1" d="M9314 22614l327 0c57,0 104,47 104,104l0 93c0,57 -47,104 -104,104l-327 0c-57,0 -104,-47 -104,-104l0 -93c0,-57 47,-104 104,-104z"/>
  <path class="fil2" d="M9314 22590l327 0c57,0 104,47 104,104l0 93c0,57 -47,104 -104,104l-327 0c-57,0 -104,-47 -104,-104l0 -93c0,-57 47,-104 104,-104z"/>
  <path class="fil1" d="M9090 22956l202 0c35,0 64,29 64,64l0 58c0,35 -29,64 -64,64l-202 0c-35,0 -64,-29 -64,-64l0 -58c0,-35 29,-64 64,-64z"/>
  <path class="fil2" d="M9090 22941l202 0c35,0 64,29 64,64l0 58c0,35 -29,64 -64,64l-202 0c-35,0 -64,-29 -64,-64l0 -58c0,-35 29,-64 64,-64z"/>
  <path class="fil1" d="M7254 22404l327 0c57,0 104,47 104,104l0 93c0,57 -47,104 -104,104l-327 0c-57,0 -104,-47 -104,-104l0 -93c0,-57 47,-104 104,-104z"/>
  <path class="fil2" d="M7254 22380l327 0c57,0 104,47 104,104l0 93c0,57 -47,104 -104,104l-327 0c-57,0 -104,-47 -104,-104l0 -93c0,-57 47,-104 104,-104z"/>
  <path class="fil1" d="M3465 22140l327 0c57,0 104,47 104,104l0 93c0,57 -47,104 -104,104l-327 0c-57,0 -104,-47 -104,-104l0 -93c0,-57 47,-104 104,-104z"/>
  <path class="fil2" d="M3465 22116l327 0c57,0 104,47 104,104l0 93c0,57 -47,104 -104,104l-327 0c-57,0 -104,-47 -104,-104l0 -93c0,-57 47,-104 104,-104z"/>
  <path class="fil1" d="M428 22766l327 0c57,0 104,47 104,104l0 93c0,57 -47,104 -104,104l-327 0c-57,0 -104,-47 -104,-104l0 -93c0,-57 47,-104 104,-104z"/>
  <path class="fil2" d="M428 22742l327 0c57,0 104,47 104,104l0 93c0,57 -47,104 -104,104l-327 0c-57,0 -104,-47 -104,-104l0 -93c0,-57 47,-104 104,-104z"/>
  <path class="fil1" d="M1473 5355l327 0c57,0 104,47 104,104l0 93c0,57 -47,104 -104,104l-327 0c-57,0 -104,-47 -104,-104l0 -93c0,-57 47,-104 104,-104z"/>
  <path class="fil2" d="M1473 5331l327 0c57,0 104,47 104,104l0 93c0,57 -47,104 -104,104l-327 0c-57,0 -104,-47 -104,-104l0 -93c0,-57 47,-104 104,-104z"/>
  <path class="fil1" d="M5668 5355l327 0c57,0 104,47 104,104l0 93c0,57 -47,104 -104,104l-327 0c-57,0 -104,-47 -104,-104l0 -93c0,-57 47,-104 104,-104z"/>
  <path class="fil2" d="M5668 5331l327 0c57,0 104,47 104,104l0 93c0,57 -47,104 -104,104l-327 0c-57,0 -104,-47 -104,-104l0 -93c0,-57 47,-104 104,-104z"/>
  <path class="fil1" d="M8576 5355l327 0c57,0 104,47 104,104l0 93c0,57 -47,104 -104,104l-327 0c-57,0 -104,-47 -104,-104l0 -93c0,-57 47,-104 104,-104z"/>
  <path class="fil2" d="M8576 5331l327 0c57,0 104,47 104,104l0 93c0,57 -47,104 -104,104l-327 0c-57,0 -104,-47 -104,-104l0 -93c0,-57 47,-104 104,-104z"/>
  <path class="fil1" d="M3465 5640l327 0c57,0 104,47 104,104l0 93c0,57 -47,104 -104,104l-327 0c-57,0 -104,-47 -104,-104l0 -93c0,-57 47,-104 104,-104z"/>
  <path class="fil2" d="M3465 5616l327 0c57,0 104,47 104,104l0 93c0,57 -47,104 -104,104l-327 0c-57,0 -104,-47 -104,-104l0 -93c0,-57 47,-104 104,-104z"/>
  <path class="fil1" d="M242 3429l327 0c57,0 104,47 104,104l0 93c0,57 -47,104 -104,104l-327 0c-57,0 -104,-47 -104,-104l0 -93c0,-57 47,-104 104,-104z"/>
  <path class="fil2" d="M242 3405l327 0c57,0 104,47 104,104l0 93c0,57 -47,104 -104,104l-327 0c-57,0 -104,-47 -104,-104l0 -93c0,-57 47,-104 104,-104z"/>
  <path class="fil1" d="M980 4188l327 0c57,0 104,47 104,104l0 93c0,57 -47,104 -104,104l-327 0c-57,0 -104,-47 -104,-104l0 -93c0,-57 47,-104 104,-104z"/>
  <path class="fil2" d="M980 4164l327 0c57,0 104,47 104,104l0 93c0,57 -47,104 -104,104l-327 0c-57,0 -104,-47 -104,-104l0 -93c0,-57 47,-104 104,-104z"/>
  <path class="fil1" d="M756 4530l202 0c35,0 64,29 64,64l0 58c0,35 -29,64 -64,64l-202 0c-35,0 -64,-29 -64,-64l0 -58c0,-35 29,-64 64,-64z"/>
  <path class="fil2" d="M756 4515l202 0c35,0 64,29 64,64l0 58c0,35 -29,64 -64,64l-202 0c-35,0 -64,-29 -64,-64l0 -58c0,-35 29,-64 64,-64z"/>
  <path class="fil1" d="M1090 5050l202 0c35,0 64,29 64,64l0 58c0,35 -29,64 -64,64l-202 0c-35,0 -64,-29 -64,-64l0 -58c0,-35 29,-64 64,-64z"/>
  <path class="fil2" d="M1090 5035l202 0c35,0 64,29 64,64l0 58c0,35 -29,64 -64,64l-202 0c-35,0 -64,-29 -64,-64l0 -58c0,-35 29,-64 64,-64z"/>
  <path class="fil1" d="M2685 4951l202 0c35,0 64,29 64,64l0 58c0,35 -29,64 -64,64l-202 0c-35,0 -64,-29 -64,-64l0 -58c0,-35 29,-64 64,-64z"/>
  <path class="fil2" d="M2685 4936l202 0c35,0 64,29 64,64l0 58c0,35 -29,64 -64,64l-202 0c-35,0 -64,-29 -64,-64l0 -58c0,-35 29,-64 64,-64z"/>
  <path class="fil1" d="M4172 5138l202 0c35,0 64,29 64,64l0 58c0,35 -29,64 -64,64l-202 0c-35,0 -64,-29 -64,-64l0 -58c0,-35 29,-64 64,-64z"/>
  <path class="fil2" d="M4172 5123l202 0c35,0 64,29 64,64l0 58c0,35 -29,64 -64,64l-202 0c-35,0 -64,-29 -64,-64l0 -58c0,-35 29,-64 64,-64z"/>
  <path class="fil1" d="M5376 4934l202 0c35,0 64,29 64,64l0 58c0,35 -29,64 -64,64l-202 0c-35,0 -64,-29 -64,-64l0 -58c0,-35 29,-64 64,-64z"/>
  <path class="fil2" d="M5376 4919l202 0c35,0 64,29 64,64l0 58c0,35 -29,64 -64,64l-202 0c-35,0 -64,-29 -64,-64l0 -58c0,-35 29,-64 64,-64z"/>
  <path class="fil1" d="M7369 5057l202 0c35,0 64,29 64,64l0 58c0,35 -29,64 -64,64l-202 0c-35,0 -64,-29 -64,-64l0 -58c0,-35 29,-64 64,-64z"/>
  <path class="fil2" d="M7369 5042l202 0c35,0 64,29 64,64l0 58c0,35 -29,64 -64,64l-202 0c-35,0 -64,-29 -64,-64l0 -58c0,-35 29,-64 64,-64z"/>
  <path class="fil1" d="M8582 4891l202 0c35,0 64,29 64,64l0 58c0,35 -29,64 -64,64l-202 0c-35,0 -64,-29 -64,-64l0 -58c0,-35 29,-64 64,-64z"/>
  <path class="fil2" d="M8582 4876l202 0c35,0 64,29 64,64l0 58c0,35 -29,64 -64,64l-202 0c-35,0 -64,-29 -64,-64l0 -58c0,-35 29,-64 64,-64z"/>
  <path class="fil1" d="M10046 5110l202 0c35,0 64,29 64,64l0 58c0,35 -29,64 -64,64l-202 0c-35,0 -64,-29 -64,-64l0 -58c0,-35 29,-64 64,-64z"/>
  <path class="fil2" d="M10046 5095l202 0c35,0 64,29 64,64l0 58c0,35 -29,64 -64,64l-202 0c-35,0 -64,-29 -64,-64l0 -58c0,-35 29,-64 64,-64z"/>
  <rect class="fil3" width="10800" height="23400"/>
 </g>
</svg>
