<?xml version="1.0" encoding="UTF-8"?>
<!DOCTYPE svg PUBLIC "-//W3C//DTD SVG 1.1//EN" "http://www.w3.org/Graphics/SVG/1.1/DTD/svg11.dtd">
<!-- Creator: CorelDRAW X7 -->
<svg xmlns="http://www.w3.org/2000/svg" xml:space="preserve" width="200mm" height="300mm" version="1.1" style="shape-rendering:geometricPrecision; text-rendering:geometricPrecision; image-rendering:optimizeQuality; fill-rule:evenodd; clip-rule:evenodd"
viewBox="0 0 20000 30000"
 xmlns:xlink="http://www.w3.org/1999/xlink">
 <defs>
  <style type="text/css">
   <![CDATA[
    .fil10 {fill:none}
    .fil3 {fill:black}
    .fil5 {fill:#3898D1}
    .fil1 {fill:#6CB8E6}
    .fil8 {fill:#6E0E1F}
    .fil4 {fill:#96D8FF}
    .fil2 {fill:#C9EBFF}
    .fil9 {fill:#DB1A47}
    .fil7 {fill:#EA5189}
    .fil6 {fill:#FF8CB6}
    .fil0 {fill:white}
   ]]>
  </style>
 </defs>
 <g id="Layer_x0020_1">
  <metadata id="CorelCorpID_0Corel-Layer"/>
  <g id="_855240352">
   <g>
    <path class="fil0" d="M10025 20965c406,0 892,-436 981,-1191 1976,1191 2212,218 1965,-1007 276,206 674,278 1019,344 843,159 956,-344 632,-862 -144,-230 -315,-513 -433,-892 -795,-2537 -635,-4261 -829,-5302 -431,-2309 -2224,-3020 -3335,-3020 -1112,0 -2904,711 -3335,3020 -194,1041 -34,2765 -829,5302 -145,463 -374,792 -532,1050 -237,385 -186,876 793,718 329,-52 692,-160 956,-358 -247,1225 -10,2198 1966,1007 88,755 575,1191 981,1191z"/>
    <path class="fil1" d="M9044 19724c8,0 15,2 22,5 15,8 25,22 27,39 84,718 540,1148 932,1148 392,0 848,-430 932,-1148 2,-17 12,-31 27,-39 15,-7 33,-6 47,2 838,506 1416,654 1717,442 262,-185 322,-667 175,-1396 -4,-20 5,-41 22,-52 18,-11 40,-10 56,2 260,196 640,268 976,331l22 4c342,65 586,20 686,-128 101,-147 62,-393 -105,-659 -158,-253 -321,-530 -438,-903 -552,-1761 -646,-3144 -715,-4154 -30,-448 -57,-836 -116,-1154 -439,-2352 -2272,-2980 -3286,-2980 -1014,0 -2847,628 -3286,2980 -60,318 -86,706 -117,1154 -68,1010 -162,2393 -714,4154 -128,408 -318,712 -472,956 -22,36 -44,71 -65,105 -120,196 -144,384 -64,504 74,111 275,225 807,140 272,-44 655,-140 935,-350 16,-12 38,-13 56,-2 17,11 26,32 22,52 -147,729 -87,1211 175,1396 301,212 879,64 1717,-442 7,-4 16,-7 25,-7zm981 1290c-421,0 -907,-432 -1020,-1160 -840,496 -1432,630 -1760,399 -285,-200 -365,-664 -237,-1378 -282,174 -626,259 -878,299 -585,94 -815,-47 -905,-182 -102,-153 -79,-381 62,-611 21,-34 43,-69 66,-105 150,-240 337,-538 461,-933 548,-1751 642,-3127 710,-4131 31,-452 57,-843 118,-1166 451,-2416 2338,-3060 3383,-3060 1044,0 2932,644 3383,3060 60,323 87,714 118,1166 68,1004 162,2380 710,4131 113,361 273,633 428,880 188,300 226,587 103,767 -88,128 -296,262 -786,169l-23 -4c-306,-58 -648,-123 -916,-282 127,715 48,1179 -237,1380 -328,231 -920,97 -1761,-399 -113,728 -598,1160 -1019,1160z"/>
    <path class="fil0" d="M10025 20965c406,0 892,-436 981,-1191 1976,1191 2212,218 1965,-1007 276,206 674,278 1019,344 843,159 956,-344 632,-862 -144,-230 -315,-513 -433,-892 -795,-2537 -635,-4261 -829,-5302 -431,-2309 -2224,-3020 -3335,-3020 -1112,0 -2904,711 -3335,3020 -194,1041 -34,2765 -829,5302 -145,463 -374,792 -532,1050 -237,385 -186,876 793,718 329,-52 692,-160 956,-358 -247,1225 -10,2198 1966,1007 88,755 575,1191 981,1191z"/>
    <path class="fil2" d="M9667 9058c-1002,300 -2111,1132 -2438,2883 -194,1041 -34,2765 -830,5302 -144,463 -373,792 -531,1050 -227,369 -190,835 675,734 -140,45 -284,76 -421,99 -979,157 -1030,-334 -793,-719 158,-257 387,-587 532,-1049 795,-2538 635,-4262 829,-5303 387,-2075 1873,-2859 2977,-2997z"/>
    <path class="fil1" d="M9044 19724c8,0 15,2 22,5 15,8 25,22 27,39 84,718 540,1148 932,1148 392,0 848,-430 932,-1148 2,-17 12,-31 27,-39 15,-7 33,-6 47,2 838,506 1416,654 1717,442 262,-185 322,-667 175,-1396 -4,-20 5,-41 22,-52 18,-11 40,-10 56,2 260,196 640,268 976,331l22 4c342,65 586,20 686,-128 101,-147 62,-393 -105,-659 -158,-253 -321,-530 -438,-903 -552,-1761 -646,-3144 -715,-4154 -30,-448 -57,-836 -116,-1154 -439,-2352 -2272,-2980 -3286,-2980 -1014,0 -2847,628 -3286,2980 -60,318 -86,706 -117,1154 -68,1010 -162,2393 -714,4154 -128,408 -318,712 -472,956 -22,36 -44,71 -65,105 -120,196 -144,384 -64,504 74,111 275,225 807,140 272,-44 655,-140 935,-350 16,-12 38,-13 56,-2 17,11 26,32 22,52 -147,729 -87,1211 175,1396 301,212 879,64 1717,-442 7,-4 16,-7 25,-7zm981 1290c-421,0 -907,-432 -1020,-1160 -840,496 -1432,630 -1760,399 -285,-200 -365,-664 -237,-1378 -282,174 -626,259 -878,299 -585,94 -815,-47 -905,-182 -102,-153 -79,-381 62,-611 21,-34 43,-69 66,-105 150,-240 337,-538 461,-933 548,-1751 642,-3127 710,-4131 31,-452 57,-843 118,-1166 451,-2416 2338,-3060 3383,-3060 1044,0 2932,644 3383,3060 60,323 87,714 118,1166 68,1004 162,2380 710,4131 113,361 273,633 428,880 188,300 226,587 103,767 -88,128 -296,262 -786,169l-23 -4c-306,-58 -648,-123 -916,-282 127,715 48,1179 -237,1380 -328,231 -920,97 -1761,-399 -113,728 -598,1160 -1019,1160z"/>
    <path class="fil0" d="M9154 12960c0,584 -473,1057 -1056,1057 -583,0 -1056,-473 -1056,-1057 0,-583 473,-1056 1056,-1056 583,0 1056,473 1056,1056z"/>
    <path class="fil3" d="M8098 11953c-555,0 -1007,452 -1007,1007 0,556 452,1007 1007,1007 555,0 1007,-451 1007,-1007 0,-555 -452,-1007 -1007,-1007zm0 2113c-610,0 -1106,-496 -1106,-1106 0,-609 496,-1105 1106,-1105 610,0 1106,496 1106,1105 0,610 -496,1106 -1106,1106z"/>
    <path class="fil3" d="M9030 12960c0,395 -320,714 -714,714 -394,0 -714,-319 -714,-714 0,-394 320,-714 714,-714 201,0 382,83 511,216 -163,187 -243,370 -182,431 54,54 199,-1 360,-123 16,60 25,124 25,190z"/>
    <path class="fil0" d="M10836 12960c0,584 472,1057 1056,1057 583,0 1056,-473 1056,-1057 0,-583 -473,-1056 -1056,-1056 -584,0 -1056,473 -1056,1056z"/>
    <path class="fil3" d="M11892 11953c-555,0 -1007,452 -1007,1007 0,556 452,1007 1007,1007 555,0 1007,-451 1007,-1007 0,-555 -452,-1007 -1007,-1007zm0 2113c-610,0 -1106,-496 -1106,-1106 0,-609 496,-1105 1106,-1105 609,0 1105,496 1105,1105 0,610 -496,1106 -1105,1106z"/>
    <path class="fil3" d="M12388 12960c0,395 -320,714 -714,714 -394,0 -714,-319 -714,-714 0,-394 320,-714 714,-714 200,0 381,83 511,216 -163,187 -243,370 -182,431 53,54 199,-1 359,-123 17,61 26,124 26,190z"/>
    <path class="fil4" d="M9556 11466c12,127 -171,249 -408,272 -237,22 -439,-62 -452,-189 -12,-128 171,-249 408,-272 237,-23 439,62 452,189z"/>
    <path class="fil5" d="M9181 11322c-24,0 -48,2 -72,4 -107,10 -205,42 -275,89 -60,40 -92,87 -88,129 4,42 44,82 111,110 78,33 180,45 286,35 107,-11 205,-42 275,-89 60,-40 93,-87 88,-129 -4,-42 -44,-82 -111,-110 -60,-25 -134,-39 -214,-39zm-110 469c-93,0 -180,-16 -252,-46 -103,-43 -164,-111 -172,-192 -7,-80 39,-159 132,-220 84,-56 197,-93 320,-105 123,-12 241,3 334,42 103,43 164,111 172,191 7,81 -39,159 -132,221 -84,56 -197,93 -320,105 -28,2 -55,4 -82,4z"/>
    <path class="fil4" d="M10434 11466c-12,127 170,249 408,272 237,22 439,-62 451,-189 13,-128 -170,-249 -407,-272 -237,-23 -439,62 -452,189z"/>
    <path class="fil5" d="M10483 11471c-8,85 139,196 363,218 107,10 209,-2 287,-35 67,-28 107,-68 111,-110 4,-42 -28,-89 -88,-129 -70,-47 -168,-79 -275,-89 -224,-22 -389,59 -398,145zm436 320c-27,0 -55,-2 -82,-4 -268,-26 -467,-169 -452,-326 15,-156 237,-259 506,-233 122,12 236,49 320,105 92,61 139,140 131,220 -7,81 -68,149 -171,192 -72,30 -160,46 -252,46z"/>
    <path class="fil0" d="M8816 13874c-44,-38 -88,-74 -135,-108 -375,-273 -856,-397 -1316,-342 -95,10 -189,29 -280,55l109 697 1327 35 295 -337z"/>
    <path class="fil3" d="M8816 13924c-12,0 -24,-5 -33,-13 -43,-38 -86,-72 -131,-105 -364,-265 -831,-387 -1282,-334 -90,11 -182,29 -272,54 -26,8 -53,-7 -60,-33 -8,-27 7,-54 33,-61 95,-27 192,-47 288,-57 475,-56 967,72 1351,351 48,35 93,71 138,111 21,19 23,50 4,70 -9,11 -23,17 -36,17z"/>
    <path class="fil0" d="M11131 13874c43,-38 87,-74 134,-108 375,-273 856,-397 1317,-342 94,10 188,29 280,55l-110 697 -1326 35 -295 -337z"/>
    <path class="fil3" d="M11131 13924c-14,0 -27,-6 -37,-17 -18,-20 -16,-52 4,-70 45,-40 90,-76 138,-111 384,-279 877,-407 1352,-351 95,10 192,30 287,57 26,7 41,34 34,61 -8,26 -35,41 -61,33 -90,-25 -181,-43 -272,-54 -450,-53 -918,69 -1282,334 -45,33 -88,67 -130,105 -10,8 -22,13 -33,13z"/>
    <path class="fil6" d="M8110 14799c-55,190 -385,262 -736,159 -351,-103 -591,-341 -535,-532 56,-191 386,-262 737,-159 351,103 590,341 534,532z"/>
    <path class="fil7" d="M7262 14270c-193,0 -343,61 -375,170 -48,161 182,377 501,470 162,48 323,58 454,30 121,-26 199,-81 221,-155 22,-74 -14,-163 -102,-250 -95,-95 -237,-173 -399,-220 -104,-31 -207,-45 -300,-45zm425 784c-104,0 -216,-16 -327,-49 -383,-112 -632,-373 -568,-593 65,-220 415,-304 798,-192 178,52 334,139 441,245 114,114 159,237 127,348 -33,110 -137,190 -295,223 -55,12 -114,18 -176,18z"/>
    <path class="fil6" d="M11879 14799c56,190 386,262 737,159 351,-103 590,-341 534,-532 -55,-191 -385,-262 -736,-159 -351,103 -591,341 -535,532z"/>
    <path class="fil7" d="M11927 14785c47,161 356,219 675,125 162,-47 304,-126 399,-220 88,-87 124,-176 102,-250 -22,-74 -100,-129 -221,-155 -131,-29 -292,-18 -454,30 -319,93 -549,308 -501,470zm375 270c-239,0 -425,-88 -470,-242 -64,-220 185,-481 568,-593 177,-52 356,-63 503,-32 158,34 262,114 295,224 32,110 -13,234 -127,348 -107,106 -263,193 -441,245 -115,33 -226,50 -328,50z"/>
    <path class="fil8" d="M10565 14704c-249,171 -609,187 -880,26 -260,-153 -434,-481 -404,-795 493,236 1097,226 1582,-26 46,306 -41,622 -298,795z"/>
    <path class="fil3" d="M9327 14010c2,264 152,541 383,678 258,153 596,134 827,-24l0 -1c206,-138 310,-389 285,-679 -464,217 -1024,227 -1495,26zm776 881c-574,0 -913,-516 -871,-961 3,-34 39,-54 70,-40 478,229 1067,220 1538,-25 30,-15 66,3 71,37 60,392 -88,756 -444,913 -115,51 -240,76 -364,76z"/>
    <path class="fil9" d="M10447 14770c-241,107 -535,95 -762,-40 -117,-69 -215,-171 -284,-290 193,-83 417,-97 615,-26 180,63 332,194 431,356z"/>
    <path class="fil3" d="M9474 14464c64,93 144,170 236,224 195,116 444,137 662,58 -94,-133 -224,-233 -372,-286 -165,-58 -353,-56 -526,4zm629 427c-156,0 -311,-39 -443,-118 -122,-72 -226,-178 -302,-308 -7,-12 -8,-27 -4,-40 4,-14 14,-25 27,-30 209,-91 447,-100 652,-28 186,67 348,200 456,377 7,12 9,27 5,40 -5,14 -14,25 -27,31 -115,51 -240,76 -364,76z"/>
    <path class="fil0" d="M8458 15863c502,902 1401,928 1550,1316 149,389 -1090,866 -2533,-70l983 -1246z"/>
    <path class="fil1" d="M9128 17703c-464,0 -1057,-149 -1680,-553 -23,-15 -29,-45 -14,-68 14,-23 45,-29 68,-15 1056,686 2038,608 2369,340 49,-40 125,-119 91,-210 -55,-142 -234,-236 -461,-355 -330,-173 -783,-411 -1086,-955 -13,-23 -4,-54 19,-67 24,-13 54,-4 67,19 289,519 709,739 1046,916 245,128 439,230 507,407 41,108 -2,226 -121,321 -159,129 -443,220 -805,220z"/>
    <path class="fil0" d="M12078 15863c-501,902 -1400,928 -1549,1316 -149,389 1090,866 2533,-70l-984 -1246z"/>
    <path class="fil1" d="M11409 17703c-362,0 -646,-91 -806,-220 -118,-95 -162,-213 -120,-321 68,-177 262,-279 507,-407 337,-177 757,-397 1045,-916 14,-23 43,-32 67,-19 24,13 33,44 19,67 -302,544 -755,782 -1086,955 -226,119 -405,213 -460,355 -35,91 42,170 90,210 332,268 1314,346 2370,-340 23,-14 53,-8 68,15 15,23 8,53 -14,68 -624,404 -1216,553 -1680,553z"/>
   </g>
   <rect class="fil10" width="20000" height="30000"/>
  </g>
 </g>
</svg>
